<svg xmlns="http://www.w3.org/2000/svg" viewBox="0 0 640 360" fill="none" aria-hidden="true">
  <defs>
    <linearGradient id="fin-fill" x1="0%" y1="0%" x2="0%" y2="100%">
      <stop offset="0%" stop-color="#ff6a00" stop-opacity="0.3"/>
      <stop offset="100%" stop-color="#ff6a00" stop-opacity="0"/>
    </linearGradient>
  </defs>
  <g stroke="#ffffff" stroke-opacity="0.05" stroke-width="1">
    <line x1="40" y1="80"  x2="600" y2="80"/>
    <line x1="40" y1="160" x2="600" y2="160"/>
    <line x1="40" y1="240" x2="600" y2="240"/>
    <line x1="40" y1="320" x2="600" y2="320"/>
  </g>
  <path d="M40 260 L120 230 L200 250 L280 200 L360 180 L440 140 L520 100 L600 80 L600 340 L40 340 Z" fill="url(#fin-fill)" opacity="0">
    <animate attributeName="opacity" values="0;0;1;1;0" keyTimes="0;0.05;0.5;0.95;1" dur="6s" repeatCount="indefinite"/>
  </path>
  <path d="M40 260 L120 230 L200 250 L280 200 L360 180 L440 140 L520 100 L600 80"
        stroke="#ff6a00" stroke-width="2.5" fill="none" stroke-linejoin="round" stroke-linecap="round"
        stroke-dasharray="900" stroke-dashoffset="900">
    <animate attributeName="stroke-dashoffset" values="900;0;0;0;900"
             keyTimes="0;0.45;0.5;0.95;1" dur="6s" repeatCount="indefinite"/>
  </path>
  <g>
    <rect x="118" y="218" width="4" height="24" fill="#ff6a00" fill-opacity="0.55" opacity="0">
      <animate attributeName="opacity" values="0;0;1;1;0" keyTimes="0;0.16;0.2;0.95;1" dur="6s" repeatCount="indefinite"/>
    </rect>
    <rect x="278" y="188" width="4" height="24" fill="#ff6a00" fill-opacity="0.7" opacity="0">
      <animate attributeName="opacity" values="0;0;1;1;0" keyTimes="0;0.26;0.3;0.95;1" dur="6s" repeatCount="indefinite"/>
    </rect>
    <rect x="438" y="128" width="4" height="24" fill="#ff6a00" fill-opacity="0.85" opacity="0">
      <animate attributeName="opacity" values="0;0;1;1;0" keyTimes="0;0.36;0.4;0.95;1" dur="6s" repeatCount="indefinite"/>
    </rect>
    <rect x="518" y="88"  width="4" height="24" fill="#ff6a00" opacity="0">
      <animate attributeName="opacity" values="0;0;1;1;0" keyTimes="0;0.42;0.46;0.95;1" dur="6s" repeatCount="indefinite"/>
    </rect>
  </g>
</svg>
