<svg xmlns="http://www.w3.org/2000/svg" viewBox="0 0 640 360" fill="none" aria-hidden="true">
  <defs>
    <linearGradient id="fin-fill" x1="0%" y1="0%" x2="0%" y2="100%">
      <stop offset="0%" stop-color="#30d158" stop-opacity="0.3"/>
      <stop offset="100%" stop-color="#30d158" stop-opacity="0"/>
    </linearGradient>
  </defs>
  <g stroke="#ffffff" stroke-opacity="0.05" stroke-width="1">
    <line x1="40" y1="80"  x2="600" y2="80"/>
    <line x1="40" y1="160" x2="600" y2="160"/>
    <line x1="40" y1="240" x2="600" y2="240"/>
    <line x1="40" y1="320" x2="600" y2="320"/>
  </g>
  <path d="M40 260 L120 230 L200 250 L280 200 L360 180 L440 140 L520 100 L600 80 L600 340 L40 340 Z" fill="url(#fin-fill)"/>
  <path d="M40 260 L120 230 L200 250 L280 200 L360 180 L440 140 L520 100 L600 80"
        stroke="#30d158" stroke-width="2" fill="none" stroke-linejoin="round" stroke-linecap="round"/>
  <g>
    <rect x="118" y="218" width="4" height="24" fill="#30d158" fill-opacity="0.55"/>
    <rect x="278" y="188" width="4" height="24" fill="#30d158" fill-opacity="0.7"/>
    <rect x="438" y="128" width="4" height="24" fill="#30d158" fill-opacity="0.85"/>
    <rect x="518" y="88"  width="4" height="24" fill="#30d158"/>
  </g>
</svg>
